<?xml version="1.0" standalone="no"?>
<!DOCTYPE svg PUBLIC "-//W3C//DTD SVG 20010904//EN"
 "http://www.w3.org/TR/2001/REC-SVG-20010904/DTD/svg10.dtd">
<svg version="1.0" xmlns="http://www.w3.org/2000/svg"
 width="512.000000pt" height="512.000000pt" viewBox="0 0 512.000000 512.000000"
 preserveAspectRatio="xMidYMid meet">
<metadata>
Created by potrace 1.14, written by Peter Selinger 2001-2017
</metadata>
<g transform="translate(0.000000,512.000000) scale(0.100000,-0.100000)"
fill="#000000" stroke="none">
<path d="M1692 4905 c-59 -26 -64 -51 -60 -365 3 -261 4 -279 23 -300 28 -32
77 -50 108 -42 39 11 75 47 82 84 3 18 5 156 3 305 l-3 273 -26 25 c-31 32
-83 40 -127 20z"/>
<path d="M535 4428 c-37 -20 -55 -51 -55 -98 l0 -44 208 -208 208 -208 48 0
c41 0 52 5 77 31 32 35 37 74 15 117 -8 15 -104 116 -214 225 -181 179 -202
197 -233 197 -19 0 -43 -6 -54 -12z"/>
<path d="M2845 4421 c-54 -34 -403 -394 -410 -423 -17 -66 31 -128 97 -128 22
0 49 5 61 11 31 16 376 359 393 391 16 32 18 91 4 119 -13 23 -61 49 -92 49
-13 0 -36 -9 -53 -19z"/>
<path d="M1620 3990 c-143 -23 -306 -96 -407 -183 -278 -239 -366 -596 -233
-949 47 -127 183 -291 304 -370 108 -70 192 -46 203 57 7 54 0 63 -105 142
-252 191 -322 526 -165 792 74 125 196 225 333 271 89 31 242 38 330 16 74
-18 176 -66 217 -100 55 -46 90 -58 133 -46 51 14 80 51 80 103 0 36 -6 47
-50 88 -63 59 -206 134 -307 160 -89 23 -252 32 -333 19z"/>
<path d="M2760 3669 c-436 -94 -755 -442 -810 -882 -7 -54 -10 -127 -7 -163 5
-63 4 -64 -22 -70 -164 -36 -270 -92 -382 -204 -143 -142 -208 -303 -209 -511
0 -274 151 -520 395 -639 162 -80 63 -74 1350 -78 1205 -3 1257 -2 1395 40
290 88 517 316 616 618 26 79 28 96 28 260 1 192 -11 258 -73 395 -118 259
-371 461 -653 519 -93 19 -279 21 -365 3 l-62 -13 -21 60 c-114 319 -376 562
-703 652 -133 36 -343 42 -477 13z m410 -221 c140 -35 258 -103 368 -210 124
-122 194 -258 237 -461 13 -60 25 -110 28 -113 2 -2 46 12 98 31 135 51 235
69 339 62 459 -31 776 -490 635 -922 -74 -224 -230 -381 -465 -467 l-65 -23
-1175 -3 c-863 -2 -1190 0 -1230 8 -145 31 -279 137 -343 271 -102 212 -59
433 114 593 109 101 239 144 400 133 49 -4 89 -3 89 1 0 4 -9 59 -21 122 -29
157 -23 319 16 435 138 416 556 649 975 543z"/>
<path d="M50 3267 c-53 -27 -67 -116 -26 -164 l24 -28 302 -3 301 -3 36 36
c32 32 35 39 30 77 -3 26 -15 51 -31 67 l-26 26 -293 3 c-222 2 -298 -1 -317
-11z"/>
<path d="M688 2272 l-208 -208 0 -44 c1 -88 90 -140 160 -94 37 24 347 333
381 378 61 82 18 175 -81 176 l-44 0 -208 -208z"/>
<path d="M2195 908 c-32 -17 -205 -189 -231 -230 -34 -53 -31 -89 10 -132 37
-40 76 -47 124 -22 43 23 250 238 257 269 17 66 -31 127 -99 127 -23 0 -50 -6
-61 -12z"/>
<path d="M4033 808 c-63 -62 -121 -125 -129 -140 -51 -98 47 -195 144 -144 32
17 225 211 241 243 14 28 14 75 0 106 -14 31 -48 47 -100 47 -38 0 -48 -7
-156 -112z"/>
<path d="M2998 382 l-128 -128 0 -48 c0 -39 5 -53 29 -77 24 -23 38 -29 73
-29 42 0 46 3 175 134 144 144 152 160 118 226 -19 38 -43 50 -96 50 -42 0
-47 -4 -171 -128z"/>
</g>
</svg>
